<svg xmlns="http://www.w3.org/2000/svg" xmlns:xlink="http://www.w3.org/1999/xlink" viewBox="0,0,256,256" width="32px" height="32px" fill-rule="nonzero"><defs><linearGradient x1="-0.391" y1="72.38" x2="34.067" y2="1.111" gradientUnits="userSpaceOnUse" id="color-1"><stop offset="0" stop-color="#00bc73"></stop><stop offset="0.762" stop-color="#5bdd46"></stop><stop offset="1" stop-color="#78e837"></stop></linearGradient><linearGradient x1="28.5" y1="30" x2="28.5" y2="5.293" gradientUnits="userSpaceOnUse" id="color-2"><stop offset="0" stop-color="#ffffff"></stop><stop offset="1" stop-color="#ffffff"></stop></linearGradient><linearGradient x1="22.529" y1="4.601" x2="39.33" y2="32.793" gradientUnits="userSpaceOnUse" id="color-3"><stop offset="0" stop-color="#ffffff" stop-opacity="0.30196"></stop><stop offset="1" stop-color="#278eff" stop-opacity="0.2"></stop></linearGradient></defs><g fill="none" fill-rule="nonzero" stroke="none" stroke-width="1" stroke-linecap="butt" stroke-linejoin="miter" stroke-miterlimit="10" stroke-dasharray="" stroke-dashoffset="0" font-family="none" font-weight="none" font-size="none" text-anchor="none" style="mix-blend-mode: normal"><g transform="scale(5.33333,5.33333)"><path d="M41.11,13.13l-0.68,0.68l-0.58,0.58l-0.58,0.58l-14.15,14.15c-0.58,0.59 -1.35,0.88 -2.12,0.88c-0.77,0 -1.54,-0.29 -2.12,-0.88l-8.29,-8.29c-0.39,-0.39 -0.39,-1.03 0,-1.42l2.82,-2.82c0.39,-0.39 1.03,-0.39 1.42,0l6.17,6.17l15.42,-15.42c1.6,1.24 2.63,3.15 2.67,5.32z" fill="#35af69" opacity="0.1"></path><path d="M40.43,13.81l-0.58,0.58l-0.58,0.58l-14.15,14.15c-0.58,0.59 -1.35,0.88 -2.12,0.88c-0.77,0 -1.54,-0.29 -2.12,-0.88l-8.29,-8.29c-0.39,-0.39 -0.39,-1.03 0,-1.42l2.82,-2.82c0.39,-0.39 1.03,-0.39 1.42,0l6.17,6.17l14.84,-14.84c1.46,1.07 2.41,2.79 2.45,4.75l0.02,0.61c0,0.19 0.05,0.37 0.12,0.53z" fill="#35af69" opacity="0.2"></path><path d="M39.85,14.39l-0.58,0.58l-14.15,14.15c-0.58,0.59 -1.35,0.88 -2.12,0.88c-0.77,0 -1.54,-0.29 -2.12,-0.88l-8.29,-8.29c-0.39,-0.39 -0.39,-1.03 0,-1.42l2.82,-2.82c0.39,-0.39 1.03,-0.39 1.42,0l6.17,6.17l14.28,-14.28c1.32,0.94 2.18,2.47 2.22,4.21l0.01,0.61c0.01,0.39 0.12,0.77 0.34,1.09z" fill="#35af69" opacity="0.3"></path><path d="M39.27,14.97l-14.15,14.15c-0.58,0.59 -1.35,0.88 -2.12,0.88c-0.77,0 -1.54,-0.29 -2.12,-0.88l-8.29,-8.29c-0.39,-0.39 -0.39,-1.03 0,-1.42l2.82,-2.82c0.39,-0.39 1.03,-0.39 1.42,0l6.17,6.17l13.7,-13.7c1.19,0.79 1.97,2.12 2,3.65l0.01,0.6c0.01,0.61 0.21,1.18 0.56,1.66z" fill="#35af69" opacity="0.4"></path><path d="M41.246,25.783c-0.611,-1.11 -0.611,-2.457 0,-3.566l0.293,-0.532c0.956,-1.738 0.372,-3.922 -1.327,-4.949l-0.52,-0.315c-1.084,-0.657 -1.757,-1.822 -1.784,-3.088l-0.013,-0.608c-0.04,-1.984 -1.639,-3.582 -3.622,-3.622l-0.608,-0.013c-1.267,-0.026 -2.433,-0.7 -3.088,-1.784l-0.315,-0.52c-1.027,-1.698 -3.211,-2.282 -4.949,-1.327l-0.532,0.293c-1.11,0.611 -2.457,0.611 -3.566,0l-0.531,-0.292c-1.738,-0.956 -3.921,-0.371 -4.948,1.327l-0.315,0.52c-0.657,1.084 -1.822,1.757 -3.088,1.784l-0.608,0.013c-1.984,0.04 -3.582,1.638 -3.622,3.622l-0.013,0.608c-0.026,1.267 -0.7,2.433 -1.784,3.088l-0.52,0.315c-1.697,1.027 -2.282,3.211 -1.327,4.949l0.293,0.532c0.611,1.11 0.611,2.457 0,3.566l-0.292,0.531c-0.956,1.738 -0.372,3.922 1.327,4.949l0.52,0.315c1.084,0.657 1.757,1.822 1.784,3.088l0.013,0.608c0.04,1.984 1.639,3.582 3.622,3.622l0.608,0.013c1.267,0.026 2.433,0.7 3.088,1.784l0.315,0.52c1.027,1.697 3.211,2.282 4.949,1.327l0.532,-0.293c1.11,-0.611 2.457,-0.611 3.566,0l0.532,0.293c1.738,0.956 3.922,0.372 4.949,-1.327l0.315,-0.52c0.657,-1.084 1.822,-1.757 3.088,-1.784l0.608,-0.013c1.984,-0.04 3.582,-1.639 3.622,-3.622l0.013,-0.608c0.026,-1.267 0.7,-2.433 1.784,-3.088l0.52,-0.315c1.697,-1.027 2.282,-3.211 1.327,-4.949z" fill="url(#color-1)"></path><path d="M40.28,16.79l-13.75,13.75c-0.94,0.94 -2.2,1.46 -3.53,1.46c-1.33,0 -2.59,-0.52 -3.53,-1.46l-8.3,-8.3c-0.56,-0.57 -0.88,-1.32 -0.88,-2.12c0,-0.8 0.31,-1.55 0.88,-2.12l2.83,-2.83c0.57,-0.57 1.32,-0.88 2.12,-0.88c0.8,0 1.55,0.31 2.12,0.88l4.76,4.76l10.84,-10.84l0.43,0.01c0.04,0 0.07,0 0.11,0.01c0.17,0 0.35,0.02 0.51,0.06c0.16,0.02 0.31,0.06 0.46,0.11c0.14,0.05 0.27,0.1 0.4,0.16c1.25,0.58 2.12,1.83 2.15,3.28l0.01,0.61c0.02,0.95 0.41,1.84 1.05,2.51c0.1,0.1 0.2,0.19 0.3,0.27c0.11,0.09 0.21,0.17 0.33,0.24c0.03,0.03 0.07,0.05 0.1,0.07l0.25,0.15l0.27,0.17c0.02,0.01 0.05,0.03 0.07,0.05z" fill="#35af69" opacity="0.05"></path><path d="M39.94,16.57l-13.69,13.68c-0.87,0.87 -2.02,1.35 -3.25,1.35c-1.23,0 -2.38,-0.48 -3.25,-1.35l-8.29,-8.29c-0.5,-0.49 -0.77,-1.14 -0.77,-1.84c0,-0.69 0.27,-1.35 0.76,-1.84l2.83,-2.83c0.5,-0.49 1.15,-0.76 1.84,-0.76c0.69,0 1.35,0.27 1.84,0.76l5.04,5.05l11.38,-11.39c0.17,0 0.35,0.02 0.51,0.06c0.16,0.02 0.31,0.06 0.46,0.11c0.14,0.05 0.27,0.1 0.4,0.16c1.25,0.58 2.12,1.83 2.15,3.28l0.01,0.61c0.02,0.95 0.41,1.84 1.05,2.51c0.1,0.1 0.2,0.19 0.3,0.27c0.11,0.09 0.21,0.17 0.33,0.24c0.03,0.03 0.07,0.05 0.1,0.07z" fill="#35af69" opacity="0.1"></path><path d="M39.59,16.35l-13.62,13.62c-0.79,0.79 -1.85,1.23 -2.97,1.23c-1.12,0 -2.18,-0.44 -2.97,-1.23l-8.29,-8.29c-0.42,-0.42 -0.65,-0.97 -0.65,-1.56c0,-0.59 0.23,-1.14 0.65,-1.55l2.83,-2.83c0.41,-0.42 0.97,-0.65 1.55,-0.65c0.59,0 1.14,0.23 1.56,0.65l5.32,5.32l11.89,-11.89c0.16,0.02 0.31,0.06 0.46,0.11c0.14,0.05 0.27,0.1 0.4,0.16c1.25,0.58 2.12,1.83 2.15,3.28l0.01,0.61c0.02,0.95 0.41,1.84 1.05,2.51c0.1,0.1 0.2,0.19 0.3,0.27c0.11,0.09 0.21,0.17 0.33,0.24z" fill="#35af69" opacity="0.2"></path><path d="M39.26,16.11l-13.57,13.58c-0.72,0.72 -1.68,1.11 -2.69,1.11c-1.01,0 -1.97,-0.39 -2.69,-1.11l-8.29,-8.3c-0.34,-0.34 -0.53,-0.79 -0.53,-1.27c0,-0.48 0.19,-0.93 0.53,-1.27l2.83,-2.83c0.34,-0.34 0.79,-0.53 1.27,-0.53c0.48,0 0.93,0.19 1.27,0.53l5.61,5.61l12.35,-12.35c0.14,0.05 0.27,0.1 0.4,0.16c1.25,0.58 2.12,1.83 2.15,3.28l0.01,0.61c0.02,0.95 0.41,1.84 1.05,2.51c0.1,0.1 0.2,0.19 0.3,0.27z" fill="#35af69" opacity="0.3"></path><path d="M38.96,15.84l-13.56,13.56c-0.64,0.65 -1.49,1 -2.4,1c-0.91,0 -1.76,-0.35 -2.4,-1l-8.3,-8.29c-0.26,-0.26 -0.41,-0.61 -0.41,-0.99c0,-0.37 0.15,-0.72 0.41,-0.99l2.83,-2.83c0.27,-0.26 0.62,-0.41 0.99,-0.41c0.38,0 0.73,0.15 0.99,0.41l5.89,5.89l12.75,-12.75c1.25,0.58 2.12,1.83 2.15,3.28l0.01,0.61c0.02,0.95 0.41,1.84 1.05,2.51z" fill="#35af69" opacity="0.4"></path><path d="M23,30c-0.768,0 -1.535,-0.293 -2.121,-0.879l-8.293,-8.293c-0.391,-0.391 -0.391,-1.024 0,-1.414l2.828,-2.828c0.391,-0.391 1.024,-0.391 1.414,0l6.172,6.172l17.172,-17.172c0.391,-0.391 1.024,-0.391 1.414,0l2.828,2.828c0.391,0.391 0.391,1.024 0,1.414l-19.293,19.293c-0.586,0.586 -1.353,0.879 -2.121,0.879z" fill="url(#color-2)"></path><path d="M40.879,5.793c0.134,0 0.259,0.052 0.354,0.146l2.828,2.828c0.195,0.195 0.195,0.512 0,0.707l-19.294,19.294c-0.472,0.472 -1.1,0.732 -1.767,0.732c-0.667,0 -1.295,-0.26 -1.768,-0.732l-8.293,-8.293c-0.094,-0.094 -0.146,-0.22 -0.146,-0.354c0,-0.134 0.052,-0.259 0.146,-0.354l2.828,-2.828c0.094,-0.094 0.22,-0.146 0.354,-0.146c0.134,0 0.259,0.052 0.354,0.146l6.172,6.172c0.098,0.098 0.226,0.146 0.354,0.146c0.128,0 0.256,-0.049 0.354,-0.146l17.17,-17.172c0.095,-0.094 0.22,-0.146 0.354,-0.146M40.879,5.293c-0.256,0 -0.512,0.098 -0.707,0.293l-17.172,17.172l-6.172,-6.172c-0.195,-0.195 -0.451,-0.293 -0.707,-0.293c-0.256,0 -0.512,0.098 -0.707,0.293l-2.828,2.828c-0.391,0.391 -0.391,1.024 0,1.414l8.293,8.293c0.586,0.586 1.353,0.879 2.121,0.879c0.768,0 1.535,-0.293 2.121,-0.879l19.293,-19.293c0.391,-0.391 0.391,-1.024 0,-1.414l-2.828,-2.828c-0.195,-0.195 -0.451,-0.293 -0.707,-0.293z" fill="url(#color-3)"></path></g></g></svg>