<svg xmlns="http://www.w3.org/2000/svg"  viewBox="0 0 48 48" width="32px" height="32px" baseProfile="basic"><path fill="#f414ca" d="M31.8,36.2l-6.39,6.39c-0.78,0.78-2.04,0.78-2.82,0l-9.27-9.27l-1.26-1.26l-1.03-1.03	l-0.91-0.91c-0.24-3.13,0.63-6.35,2.65-9c2.8-3.67,6.37-8.25,9.05-11.3L22,10c0.12,0.12,0.25,0.25,0.38,0.39	c0.17,0.18,0.36,0.38,0.55,0.59c0.17,0.19,0.35,0.38,0.54,0.59c2.57,2.9,6.23,7.57,9.21,11.49C35.72,27.04,35.35,32.65,31.8,36.2z" opacity=".1"/><path fill="#f414ca" d="M31.8,36.2l-6.39,6.39c-0.78,0.78-2.04,0.78-2.82,0l-9.27-9.27l-1.26-1.26l-1.03-1.03	c-0.5-3.24,0.27-6.66,2.38-9.43c2.78-3.64,6.31-8.17,8.97-11.21c0.17,0.18,0.36,0.38,0.55,0.59c0.17,0.19,0.35,0.38,0.54,0.59	c2.57,2.9,6.23,7.57,9.21,11.49C35.72,27.04,35.35,32.65,31.8,36.2z" opacity=".2"/><path fill="#f414ca" d="M31.8,36.2l-6.39,6.39c-0.78,0.78-2.04,0.78-2.82,0l-9.27-9.27l-1.26-1.26	c-0.87-3.36-0.24-7.05,1.98-9.97c2.76-3.61,6.27-8.11,8.89-11.11c0.17,0.19,0.35,0.38,0.54,0.59c2.57,2.9,6.23,7.57,9.21,11.49	C35.72,27.04,35.35,32.65,31.8,36.2z" opacity=".3"/><path fill="#f414ca" d="M31.8,36.2l-6.39,6.39c-0.78,0.78-2.04,0.78-2.82,0l-9.27-9.27	c-1.45-3.48-1.03-7.6,1.36-10.74c2.73-3.59,6.19-8.02,8.79-11.01c2.57,2.9,6.23,7.57,9.21,11.49C35.72,27.04,35.35,32.65,31.8,36.2z" opacity=".4"/><linearGradient id="bYy-ZQNasKALLHuHj0AyMa" x1="156.29" x2="156.29" y1="-5.207" y2="41.714" gradientTransform="translate(-127)" gradientUnits="userSpaceOnUse"><stop offset="0" stop-color="#ffa4f9"/><stop offset=".447" stop-color="#ff5dde"/><stop offset="1" stop-color="#ff01bb"/></linearGradient><path fill="url(#bYy-ZQNasKALLHuHj0AyMa)" d="M25.414,42.586L42,26c4.418-4.418,4.418-11.582,0-16l0,0c-4.418-4.418-11.582-4.418-16,0	c-2.48,2.48-7.065,8.318-10.683,13.06c-3.038,3.982-2.662,9.595,0.88,13.136l6.389,6.389C23.367,43.367,24.633,43.367,25.414,42.586	z"/><path fill="#f414ca" d="M36.48,31.52l-0.53,0.54l-0.6,0.59l-0.67,0.67l-0.87,0.88l-8.4,8.39	c-0.78,0.78-2.04,0.78-2.82,0L16.2,36.2c-3.55-3.55-3.92-9.16-0.88-13.14c2.88-3.78,6.38-8.26,8.94-11.18	c0.09-0.11,0.18-0.21,0.27-0.31c0.09-0.1,0.18-0.2,0.27-0.29c0.09-0.1,0.18-0.2,0.27-0.3c0.09-0.1,0.18-0.2,0.28-0.3	c2.64,3.03,6.16,7.54,8.93,11.17C36.43,24.68,37.15,28.22,36.48,31.52z" opacity=".05"/><path fill="#f414ca" d="M35.95,32.06l-0.6,0.59l-0.67,0.67l-0.87,0.88l-8.4,8.39c-0.78,0.78-2.04,0.78-2.82,0	L16.2,36.2c-3.55-3.55-3.92-9.16-0.88-13.14c2.88-3.78,6.38-8.26,8.94-11.18c0.09-0.11,0.18-0.21,0.27-0.31	c0.09-0.1,0.18-0.2,0.27-0.29c0.09-0.1,0.18-0.2,0.27-0.3c2.63,3.01,6.13,7.5,8.89,11.11C36.18,25.01,36.81,28.7,35.95,32.06z" opacity=".1"/><path fill="#f414ca" d="M35.35,32.65l-0.67,0.67l-0.87,0.88l-8.4,8.39c-0.78,0.78-2.04,0.78-2.82,0L16.2,36.2	c-3.55-3.55-3.92-9.16-0.88-13.14c2.88-3.78,6.38-8.26,8.94-11.18c0.09-0.11,0.18-0.21,0.27-0.31c0.09-0.1,0.18-0.2,0.27-0.29	c2.62,3,6.1,7.46,8.84,11.05C35.93,25.34,36.48,29.23,35.35,32.65z" opacity=".2"/><path fill="#f414ca" d="M34.68,33.32l-0.87,0.88l-8.4,8.39c-0.78,0.78-2.04,0.78-2.82,0L16.2,36.2	c-3.55-3.55-3.92-9.16-0.88-13.14c2.88-3.78,6.38-8.26,8.94-11.18c0.09-0.11,0.18-0.21,0.27-0.31c2.6,2.99,6.06,7.42,8.79,11.01	C35.72,25.72,36.13,29.85,34.68,33.32z" opacity=".3"/><path fill="#f414ca" d="M33.81,34.2l-8.4,8.39c-0.78,0.78-2.04,0.78-2.82,0L16.2,36.2	c-3.55-3.55-3.92-9.16-0.88-13.14c2.88-3.78,6.38-8.26,8.94-11.18c2.59,2.97,6.03,7.39,8.74,10.94	C35.56,26.17,35.77,30.66,33.81,34.2z" opacity=".4"/><linearGradient id="bYy-ZQNasKALLHuHj0AyMb" x1="796.29" x2="796.29" y1="35.608" y2="-6.983" gradientTransform="matrix(-1 0 0 1 815 0)" gradientUnits="userSpaceOnUse"><stop offset="0" stop-color="#ffbe02" stop-opacity=".4"/><stop offset="1" stop-color="#ffe669" stop-opacity=".4"/></linearGradient><path fill="url(#bYy-ZQNasKALLHuHj0AyMb)" d="M22.586,42.586L6,26c-4.418-4.418-4.418-11.582,0-16l0,0c4.418-4.418,11.582-4.418,16,0	c2.48,2.48,7.065,8.318,10.683,13.06c3.038,3.982,2.662,9.595-0.88,13.136l-6.389,6.389C24.633,43.367,23.367,43.367,22.586,42.586z"/><linearGradient id="bYy-ZQNasKALLHuHj0AyMc" x1="18.71" x2="18.71" y1="-7.524" y2="52.611" gradientUnits="userSpaceOnUse"><stop offset="0" stop-color="#ffeab0" stop-opacity=".2"/><stop offset=".133" stop-color="#ffe6a0" stop-opacity=".213"/><stop offset=".393" stop-color="#ffdb77" stop-opacity=".239"/><stop offset=".751" stop-color="#ffcb34" stop-opacity=".275"/><stop offset="1" stop-color="#ffbe02" stop-opacity=".3"/></linearGradient><path fill="url(#bYy-ZQNasKALLHuHj0AyMc)" d="M14,7.186c2.888,0,5.604,1.125,7.646,3.167c2.49,2.49,7.16,8.449,10.639,13.01	c2.872,3.765,2.513,9.13-0.836,12.479l-6.389,6.389c-0.283,0.283-0.66,0.439-1.061,0.439c-0.401,0-0.777-0.156-1.061-0.439	L6.354,25.646C4.311,23.604,3.186,20.888,3.186,18s1.125-5.604,3.167-7.646C8.396,8.311,11.112,7.186,14,7.186 M14,6.686	c-2.895,0-5.791,1.105-8,3.314h0c-4.418,4.418-4.418,11.582,0,16l16.586,16.586c0.391,0.391,0.902,0.586,1.414,0.586	s1.024-0.195,1.414-0.586l6.389-6.389c3.542-3.542,3.918-9.154,0.88-13.136C29.065,18.318,24.48,12.479,22,10	C19.791,7.791,16.895,6.686,14,6.686L14,6.686z"/></svg>