<svg xmlns="http://www.w3.org/2000/svg"  viewBox="0 0 48 48" width="32px" height="32px" baseProfile="basic"><path fill="#9946f9" d="M35,12.271V8c0-0.552-0.448-1-1-1H14c-0.552,0-1,0.448-1,1v4.271 c0,0.253,0.024,0.486,0.037,0.729H34.96C34.974,12.757,35,12.524,35,12.271z" opacity=".1"/><path fill="#9946f9" d="M35,8c0-0.552-0.448-1-1-1H14c-0.552,0-1,0.448-1,1v4.25h22V8z" opacity=".2"/><path fill="#9946f9" d="M35,8c0-0.552-0.448-1-1-1H14c-0.552,0-1,0.448-1,1v3.5h22V8z" opacity=".3"/><path fill="#9946f9" d="M35,8c0-0.552-0.448-1-1-1H14c-0.552,0-1,0.448-1,1v2.75h22V8z" opacity=".4"/><linearGradient id="8uCBKdS2JWAtws6vgAGnja" x1="24" x2="24" y1="-3.359" y2="17.641" gradientTransform="translate(0 1)" gradientUnits="userSpaceOnUse"><stop offset="0" stop-color="#c99fff"/><stop offset=".219" stop-color="#be85ff"/><stop offset="1" stop-color="#962aff"/></linearGradient><path fill="url(#8uCBKdS2JWAtws6vgAGnja)" d="M35,10H13c-1.105,0-2-0.895-2-2V6c0-1.105,0.895-2,2-2h22c1.105,0,2,0.895,2,2v2	C37,9.105,36.105,10,35,10z"/><path fill="#9946f9" d="M13,35.729V40c0,0.552,0.448,1,1,1h20c0.552,0,1-0.448,1-1v-4.271 c0-0.253-0.024-0.486-0.037-0.729H13.04C13.026,35.243,13,35.476,13,35.729z" opacity=".1"/><path fill="#9946f9" d="M13,40c0,0.552,0.448,1,1,1h20c0.552,0,1-0.448,1-1v-4.25H13V40z" opacity=".2"/><path fill="#9946f9" d="M13,40c0,0.552,0.448,1,1,1h20c0.552,0,1-0.448,1-1v-3.5H13V40z" opacity=".3"/><path fill="#9946f9" d="M13,40c0,0.552,0.448,1,1,1h20c0.552,0,1-0.448,1-1v-2.75H13V40z" opacity=".4"/><linearGradient id="8uCBKdS2JWAtws6vgAGnjb" x1="24" x2="24" y1="28.163" y2="49.163" gradientTransform="translate(0 1)" gradientUnits="userSpaceOnUse"><stop offset="0" stop-color="#c99fff"/><stop offset=".219" stop-color="#be85ff"/><stop offset="1" stop-color="#962aff"/></linearGradient><path fill="url(#8uCBKdS2JWAtws6vgAGnjb)" d="M35,44H13c-1.105,0-2-0.895-2-2v-2	c0-1.105,0.895-2,2-2h22c1.105,0,2,0.895,2,2v2C37,43.105,36.105,44,35,44z"/><g><path fill="#7323e5" d="M35,38H13c-1.105,0-2,0.895-2,2c0,1.654,1.346,3,3,3h20c1.654,0,3-1.346,3-3 C37,38.895,36.105,38,35,38z" opacity=".05"/><path fill="#7323e5" d="M35,38H13c-0.657,0-1.235,0.321-1.6,0.811V40c0,1.434,1.166,2.6,2.6,2.6h20 c1.434,0,2.6-1.166,2.6-2.6v-1.189C36.235,38.321,35.657,38,35,38z" opacity=".1"/><path fill="#7323e5" d="M35,38H13c-0.452,0-0.865,0.156-1.2,0.409V40c0,1.213,0.987,2.2,2.2,2.2h20 c1.214,0,2.2-0.987,2.2-2.2v-1.591C35.865,38.156,35.452,38,35,38z" opacity=".2"/><path fill="#7323e5" d="M35,38H13c-0.285,0-0.555,0.061-0.8,0.169V40c0,0.993,0.807,1.8,1.8,1.8h20 c0.993,0,1.8-0.807,1.8-1.8v-1.831C35.555,38.061,35.285,38,35,38z" opacity=".3"/><path fill="#7323e5" d="M35,38H13c-0.137,0-0.271,0.014-0.4,0.04V40c0,0.773,0.627,1.4,1.4,1.4h20 c0.773,0,1.4-0.627,1.4-1.4v-1.96C35.271,38.014,35.137,38,35,38z" opacity=".4"/></g><g><path fill="#7e2cff" d="M13,10h22c1.105,0,2-0.895,2-2c0-1.654-1.346-3-3-3H14c-1.654,0-3,1.346-3,3 C11,9.105,11.895,10,13,10z" opacity=".05"/><path fill="#7e2cff" d="M13,10h22c0.657,0,1.235-0.321,1.6-0.811V8c0-1.434-1.166-2.6-2.6-2.6H14 c-1.434,0-2.6,1.166-2.6,2.6v1.189C11.765,9.679,12.343,10,13,10z" opacity=".1"/><path fill="#7e2cff" d="M13,10h22c0.452,0,0.865-0.156,1.2-0.409V8c0-1.213-0.987-2.2-2.2-2.2H14 c-1.214,0-2.2,0.987-2.2,2.2v1.591C12.135,9.844,12.548,10,13,10z" opacity=".2"/><path fill="#7e2cff" d="M13,10h22c0.285,0,0.555-0.061,0.8-0.169V8c0-0.993-0.807-1.8-1.8-1.8H14 c-0.993,0-1.8,0.807-1.8,1.8v1.831C12.445,9.939,12.715,10,13,10z" opacity=".3"/><path fill="#7e2cff" d="M13,10h22c0.137,0,0.271-0.014,0.4-0.04V8c0-0.773-0.627-1.4-1.4-1.4H14 c-0.773,0-1.4,0.627-1.4,1.4v1.96C12.729,9.986,12.863,10,13,10z" opacity=".4"/></g><linearGradient id="8uCBKdS2JWAtws6vgAGnjc" x1="24" x2="24" y1="6.815" y2="41.02" gradientUnits="userSpaceOnUse"><stop offset="0" stop-color="#4eaefe" stop-opacity=".2"/><stop offset="1" stop-color="#41a2fe" stop-opacity=".4"/></linearGradient><path fill="url(#8uCBKdS2JWAtws6vgAGnjc)" d="M35,12.271V8c0-0.552-0.448-1-1-1H14	c-0.552,0-1,0.448-1,1v4.271c0,6.449,4.195,9.615,7.323,11.063c0.569,0.264,0.574,1.072,0.008,1.342	C17.202,26.165,13,29.446,13,35.729V40c0,0.552,0.448,1,1,1h20c0.552,0,1-0.448,1-1v-4.271c0-6.449-4.195-9.615-7.323-11.063	c-0.569-0.264-0.574-1.072-0.008-1.342C30.798,21.835,35,18.554,35,12.271z"/><linearGradient id="8uCBKdS2JWAtws6vgAGnjd" x1="24" x2="24" y1="4.957" y2="26.956" gradientUnits="userSpaceOnUse"><stop offset="0" stop-color="#fff" stop-opacity=".2"/><stop offset="1" stop-color="#71b5ff" stop-opacity=".4"/></linearGradient><path fill="url(#8uCBKdS2JWAtws6vgAGnjd)" d="M34,7.5c0.276,0,0.5,0.224,0.5,0.5v4.271	c0,6.306-4.414,9.349-7.046,10.602c-0.439,0.209-0.71,0.641-0.707,1.127c0.003,0.486,0.278,0.916,0.72,1.12	c3.209,1.486,7.034,4.533,7.034,10.61V40c0,0.276-0.224,0.5-0.5,0.5H14c-0.276,0-0.5-0.224-0.5-0.5v-4.271	c0-6.306,4.414-9.349,7.046-10.602c0.439-0.209,0.71-0.641,0.707-1.127c-0.003-0.486-0.278-0.916-0.72-1.12	c-3.209-1.486-7.034-4.533-7.034-10.61V8c0-0.276,0.224-0.5,0.5-0.5H34 M34,7H14c-0.552,0-1,0.448-1,1v4.271	c0,6.449,4.195,9.615,7.323,11.063c0.569,0.264,0.574,1.072,0.008,1.342C17.202,26.165,13,29.446,13,35.729V40c0,0.552,0.448,1,1,1	h20c0.552,0,1-0.448,1-1v-4.271c0-6.449-4.195-9.615-7.323-11.063c-0.569-0.264-0.574-1.072-0.008-1.342	C30.798,21.835,35,18.554,35,12.271V8C35,7.448,34.552,7,34,7L34,7z"/></svg>