<svg xmlns="http://www.w3.org/2000/svg"  viewBox="0 0 32 32" width="50px" height="50px" baseProfile="basic"><linearGradient id="n7i3AGYgvy6Pyvk8yJ_Cma" x1="-201.966" x2="-182.111" y1="-80.122" y2="-60.267" gradientTransform="rotate(45.001 -191.998 224.003)" gradientUnits="userSpaceOnUse"><stop offset="0" stop-color="#ff624a"/><stop offset=".247" stop-color="#ff5940"/><stop offset=".672" stop-color="#fd4224"/><stop offset="1" stop-color="#fc2c0a"/></linearGradient><path fill="url(#n7i3AGYgvy6Pyvk8yJ_Cma)" d="M14.586,29.387L2.613,17.414c-0.781-0.781-0.781-2.047,0-2.828L14.586,2.613	c0.781-0.781,2.047-0.781,2.828,0l11.973,11.973c0.781,0.781,0.781,2.047,0,2.828L17.414,29.387	C16.633,30.168,15.367,30.168,14.586,29.387z"/><linearGradient id="n7i3AGYgvy6Pyvk8yJ_Cmb" x1="16" x2="16" y1="2.027" y2="29.973" gradientUnits="userSpaceOnUse"><stop offset="0" stop-opacity=".02"/><stop offset="1" stop-opacity=".15"/></linearGradient><path fill="url(#n7i3AGYgvy6Pyvk8yJ_Cmb)" d="M16,2.277 c0.467,0,0.907,0.182,1.237,0.513L29.21,14.763c0.682,0.682,0.682,1.793,0,2.475L17.237,29.21c-0.331,0.331-0.77,0.513-1.237,0.513 s-0.907-0.182-1.237-0.513L2.79,17.237c-0.682-0.682-0.682-1.793,0-2.475L14.763,2.79C15.093,2.459,15.533,2.277,16,2.277 M16,2.027c-0.512,0-1.024,0.195-1.414,0.586L2.613,14.586c-0.781,0.781-0.781,2.047,0,2.828l11.973,11.973 c0.391,0.391,0.902,0.586,1.414,0.586s1.024-0.195,1.414-0.586l11.973-11.973c0.781-0.781,0.781-2.047,0-2.828L17.414,2.613 C17.024,2.222,16.512,2.027,16,2.027L16,2.027z"/><g opacity=".2"><linearGradient id="n7i3AGYgvy6Pyvk8yJ_Cmc" x1="16" x2="16" y1="20.25" y2="23.75" gradientUnits="userSpaceOnUse"><stop offset="0" stop-opacity=".1"/><stop offset="1" stop-opacity=".7"/></linearGradient><path fill="url(#n7i3AGYgvy6Pyvk8yJ_Cmc)" d="M16,20.25c-0.965,0-1.75,0.785-1.75,1.75 s0.785,1.75,1.75,1.75s1.75-0.785,1.75-1.75S16.965,20.25,16,20.25L16,20.25z"/></g><g opacity=".2"><linearGradient id="n7i3AGYgvy6Pyvk8yJ_Cmd" x1="16" x2="16" y1="7.75" y2="18.25" gradientUnits="userSpaceOnUse"><stop offset="0" stop-opacity=".1"/><stop offset="1" stop-opacity=".7"/></linearGradient><path fill="url(#n7i3AGYgvy6Pyvk8yJ_Cmd)" d="M16,7.75 c-0.464,0-0.895,0.185-1.215,0.521s-0.483,0.776-0.46,1.239l0.375,7.503c0.035,0.693,0.605,1.236,1.3,1.236s1.265-0.543,1.3-1.236 l0.375-7.503c0.023-0.463-0.14-0.903-0.46-1.239S16.464,7.75,16,7.75L16,7.75z"/></g><path fill="#fff" d="M16,8L16,8c-0.816,0-1.466,0.683-1.425,1.498l0.375,7.503C14.978,17.561,15.44,18,16,18h0	c0.56,0,1.022-0.439,1.05-0.999l0.375-7.503C17.466,8.683,16.816,8,16,8z"/><circle cx="16" cy="22" r="1.5" fill="#fff"/></svg>