<svg xmlns="http://www.w3.org/2000/svg"  viewBox="0 0 32 32" width="50px" height="50px" baseProfile="basic"><linearGradient id="y7ZQP3MCN8hH3MD53kt_ba" x1="16" x2="16" y1="4.487" y2="28.94" gradientUnits="userSpaceOnUse"><stop offset="0" stop-color="#ff624a"/><stop offset=".247" stop-color="#ff5940"/><stop offset=".672" stop-color="#fd4224"/><stop offset="1" stop-color="#fc2c0a"/></linearGradient><path fill="url(#y7ZQP3MCN8hH3MD53kt_ba)" d="M21.833,4C18.826,4,16,6,16,6s-2.828-2-5.833-2C5.656,4,2,7.656,2,12.167	c0,7.137,10.691,14.808,13.388,16.629c0.373,0.252,0.851,0.252,1.224,0C19.309,26.974,30,19.303,30,12.167	C30,7.656,26.344,4,21.833,4z"/><linearGradient id="y7ZQP3MCN8hH3MD53kt_bb" x1="16" x2="16" y1="3.836" y2="27.736" gradientUnits="userSpaceOnUse"><stop offset="0" stop-opacity=".02"/><stop offset="1" stop-opacity=".15"/></linearGradient><path fill="url(#y7ZQP3MCN8hH3MD53kt_bb)" d="M21.833,4C18.826,4,16,6,16,6	s-2.828-2-5.833-2C5.656,4,2,7.656,2,12.167c0,7.137,10.691,14.808,13.388,16.629c0.187,0.126,0.399,0.189,0.612,0.189	s0.425-0.063,0.612-0.189C19.309,26.974,30,19.303,30,12.167C30,7.656,26.344,4,21.833,4z M24.14,22.299	c-3.005,3.033-6.363,5.409-7.668,6.29c-0.142,0.096-0.305,0.146-0.472,0.146c-0.167,0-0.33-0.051-0.472-0.146	c-1.304-0.881-4.662-3.257-7.668-6.29c-3.723-3.757-5.61-7.166-5.61-10.132c0-4.365,3.551-7.917,7.917-7.917	c2.888,0,5.661,1.935,5.689,1.954L16,6.306l0.144-0.102c0.028-0.02,2.799-1.954,5.689-1.954c4.365,0,7.917,3.551,7.917,7.917	C29.75,15.133,27.862,18.542,24.14,22.299z"/><linearGradient id="y7ZQP3MCN8hH3MD53kt_bc" x1="17.5" x2="17.5" y1="9.79" y2="20.791" gradientUnits="userSpaceOnUse"><stop offset="0" stop-opacity=".02"/><stop offset="1" stop-opacity=".15"/></linearGradient><path fill="url(#y7ZQP3MCN8hH3MD53kt_bc)" d="M24.837,10.162	c-0.512-0.511-1.343-0.51-1.854,0l-7.974,7.974l-2.994-2.994c-0.512-0.511-1.343-0.51-1.854,0c-0.248,0.248-0.384,0.577-0.384,0.927	s0.137,0.679,0.384,0.927l3.805,3.805c0.278,0.279,0.648,0.432,1.042,0.432c0.395,0,0.765-0.153,1.043-0.432l8.785-8.784	C25.349,11.504,25.349,10.673,24.837,10.162z"/><path fill="#fff" d="M10.329,15.318L10.329,15.318c0.414-0.414,1.086-0.414,1.5,0L15,18.489l8.15-8.15	c0.414-0.414,1.086-0.414,1.5,0l0,0c0.414,0.414,0.414,1.086,0,1.5l-8.784,8.784c-0.478,0.478-1.254,0.478-1.732,0l-3.805-3.805	C9.915,16.404,9.915,15.732,10.329,15.318z"/></svg>