<svg xmlns="http://www.w3.org/2000/svg"  viewBox="0 0 32 32" width="50px" height="50px" baseProfile="basic"><linearGradient id="uWV85G9a3mBXOcCghVER-a" x1="16" x2="16" y1="2.888" y2="29.012" gradientUnits="userSpaceOnUse"><stop offset="0" stop-color="#ab87ff"/><stop offset="1" stop-color="#8655fa"/></linearGradient><circle cx="16" cy="16" r="13" fill="url(#uWV85G9a3mBXOcCghVER-a)"/><linearGradient id="uWV85G9a3mBXOcCghVER-b" x1="16" x2="16" y1="22.25" y2="25.75" gradientUnits="userSpaceOnUse"><stop offset="0" stop-opacity=".02"/><stop offset="1" stop-opacity=".15"/></linearGradient><path fill="url(#uWV85G9a3mBXOcCghVER-b)" d="M16,22.25c-0.965,0-1.75,0.785-1.75,1.75	s0.785,1.75,1.75,1.75s1.75-0.785,1.75-1.75S16.965,22.25,16,22.25z"/><linearGradient id="uWV85G9a3mBXOcCghVER-c" x1="16.064" x2="16.064" y1="7.75" y2="20.25" gradientUnits="userSpaceOnUse"><stop offset="0" stop-opacity=".02"/><stop offset="1" stop-opacity=".15"/></linearGradient><path fill="url(#uWV85G9a3mBXOcCghVER-c)" d="M16.371,7.75	c-2.818,0-4.805,1.433-5.454,3.932c-0.098,0.377-0.017,0.771,0.223,1.08c0.24,0.31,0.601,0.487,0.991,0.487	c0.567,0,1.056-0.392,1.216-0.976c0.327-1.191,1.417-2.024,2.653-2.024c0.127,0,0.257,0.009,0.387,0.027	c1.733,0.237,2.363,1.692,2.363,2.612c0,0.994-0.882,1.765-1.816,2.581c-1.074,0.938-2.184,1.908-2.184,3.369	c0,0.792,0.573,1.412,1.303,1.412h0.087c0.635,0,1.11-0.66,1.11-1.25c0-0.499,0.644-1.106,1.389-1.807	c1.163-1.096,2.611-2.459,2.611-4.371C21.25,9.93,19.153,7.75,16.371,7.75z"/><linearGradient id="uWV85G9a3mBXOcCghVER-d" x1="16" x2="16" y1="3" y2="29" gradientUnits="userSpaceOnUse"><stop offset="0" stop-opacity=".02"/><stop offset="1" stop-opacity=".15"/></linearGradient><path fill="url(#uWV85G9a3mBXOcCghVER-d)" d="M16,3C8.82,3,3,8.82,3,16s5.82,13,13,13	s13-5.82,13-13S23.18,3,16,3z M16,28.75C8.97,28.75,3.25,23.03,3.25,16C3.25,8.97,8.97,3.25,16,3.25S28.75,8.97,28.75,16	C28.75,23.03,23.03,28.75,16,28.75z"/><path fill="#fff" d="M16.371,8c-2.654,0-4.578,1.303-5.212,3.745C10.995,12.379,11.476,13,12.131,13h0	c0.472,0,0.85-0.338,0.975-0.793c0.383-1.398,1.756-2.392,3.315-2.179C18.207,10.273,19,11.749,19,12.888c0,2.29-4,3.34-4,5.95	C15,19.479,15.441,20,16.053,20h0.087c0.47,0,0.86-0.518,0.86-1c0-1.48,4-3.12,4-6.178C21,10.151,19.085,8,16.371,8z"/><circle cx="16" cy="24" r="1.5" fill="#fff"/></svg>