<svg xmlns="http://www.w3.org/2000/svg"  viewBox="0 0 64 64" width="64px" height="64px"><linearGradient id="0EqCSQ~Ai~4nakm4b7bwta" x1="48.5" x2="48.5" y1="7" y2="24" gradientUnits="userSpaceOnUse" spreadMethod="reflect"><stop offset="0" stop-color="#6dc7ff"/><stop offset="1" stop-color="#e6abff"/></linearGradient><path fill="url(#0EqCSQ~Ai~4nakm4b7bwta)" d="M54.562,7.06l-13.076,3.269c-1.478,0.37-1.988,2.211-0.911,3.288l9.807,9.807 c1.078,1.078,2.919,0.568,3.288-0.911L56.94,9.438C57.299,8.002,55.998,6.701,54.562,7.06z"/><linearGradient id="0EqCSQ~Ai~4nakm4b7bwtb" x1="-15.111" x2="23.937" y1="113.017" y2="152.065" gradientTransform="rotate(45.001 115.815 115.5)" gradientUnits="userSpaceOnUse" spreadMethod="reflect"><stop offset="0" stop-color="#6dc7ff"/><stop offset="1" stop-color="#e6abff"/></linearGradient><path fill="url(#0EqCSQ~Ai~4nakm4b7bwtb)" d="M34.185,29.8c-5.069-5.069-13.316-5.069-18.385,0s-5.069,13.316,0,18.385 s13.316,5.069,18.385,0S39.253,34.868,34.185,29.8z M17.214,46.77c-4.289-4.289-4.289-11.267,0-15.556s11.267-4.289,15.556,0 s4.289,11.267,0,15.556S21.503,51.059,17.214,46.77z"/><linearGradient id="0EqCSQ~Ai~4nakm4b7bwtc" x1="32.5" x2="32.5" y1="7" y2="56" gradientUnits="userSpaceOnUse" spreadMethod="reflect"><stop offset="0" stop-color="#1a6dff"/><stop offset="1" stop-color="#c822ff"/></linearGradient><path fill="url(#0EqCSQ~Ai~4nakm4b7bwtc)" d="M55.046,7c-0.158,0-0.32,0.019-0.484,0.06l-13.076,3.269 c-1.478,0.37-1.988,2.211-0.911,3.288l4.196,4.196l-8.492,8.492C33.277,23.636,29.334,22,25,22c-9.389,0-17,7.611-17,17 s7.611,17,17,17s17-7.611,17-17c0-4.334-1.636-8.277-4.306-11.28l8.492-8.492l4.196,4.196C50.776,23.818,51.272,24,51.761,24 c0.849,0,1.676-0.548,1.91-1.486L56.94,9.438C57.258,8.166,56.273,7,55.046,7z M25,54c-8.284,0-15-6.716-15-15 c0-8.284,6.716-15,15-15s15,6.716,15,15C40,47.284,33.284,54,25,54z M51.747,21.961l-9.708-9.708l12.944-3.236L51.747,21.961z"/></svg>