<svg xmlns="http://www.w3.org/2000/svg"  viewBox="0 0 30 30" width="30px" height="30px"><path d="M 7.984375 2.9863281 A 1.0001 1.0001 0 0 0 7.8398438 3 L 6 3 A 1.0001 1.0001 0 1 0 6 5 L 7 5 L 7 7 C 7 11.611855 10.11218 14.053381 11.464844 15 C 10.11218 15.946619 7 18.388145 7 23 L 7 25 L 6 25 A 1.0001 1.0001 0 1 0 6 27 L 7.8320312 27 A 1.0001 1.0001 0 0 0 8.1582031 27 L 21.832031 27 A 1.0001 1.0001 0 0 0 22.158203 27 L 24 27 A 1.0001 1.0001 0 1 0 24 25 L 23 25 L 23 23 C 23 18.388145 19.88782 15.946619 18.535156 15 C 19.88782 14.053381 23 11.611855 23 7 L 23 5 L 24 5 A 1.0001 1.0001 0 1 0 24 3 L 22.154297 3 A 1.0001 1.0001 0 0 0 21.984375 2.9863281 A 1.0001 1.0001 0 0 0 21.839844 3 L 8.1542969 3 A 1.0001 1.0001 0 0 0 7.984375 2.9863281 z M 9.0898438 8 L 20.910156 8 C 20.30229 11.758553 16.486328 14.142578 16.486328 14.142578 A 1.0001 1.0001 0 0 0 16.486328 15.857422 C 16.486328 15.857422 20.30229 18.241447 20.910156 22 L 9.0898438 22 C 9.6977096 18.241447 13.513672 15.857422 13.513672 15.857422 A 1.0001 1.0001 0 0 0 13.513672 14.142578 C 13.513672 14.142578 9.6977096 11.758553 9.0898438 8 z M 12 10 C 12 11.657 13.343 13 15 13 C 16.657 13 18 11.657 18 10 L 12 10 z"/></svg>