<svg xmlns="http://www.w3.org/2000/svg"  viewBox="0 0 48 48" width="32px" height="32px"><defs><radialGradient id="ilYSGJU1tW0v8w65iR2DPa" cx="19.5" cy=".23" r="35.35" fx="19.5" fy=".23" gradientUnits="userSpaceOnUse"><stop offset="0" stop-color="#fee6e6"/><stop offset=".17" stop-color="#fcdee2"/><stop offset=".44" stop-color="#f9c8d7"/><stop offset=".6" stop-color="#f7b8d0"/><stop offset="1" stop-color="#feaaaa"/></radialGradient><radialGradient id="ilYSGJU1tW0v8w65iR2DPb" cx="19.46" cy="1.32" r="35.34" fx="19.46" fy="1.32" gradientUnits="userSpaceOnUse"><stop offset="0" stop-color="#fee1e1"/><stop offset=".15" stop-color="#fcd9dd"/><stop offset=".38" stop-color="#f9c3d3"/><stop offset=".6" stop-color="#f5a8c6"/><stop offset="1" stop-color="#fe9797"/></radialGradient><radialGradient id="ilYSGJU1tW0v8w65iR2DPc" cx="19.42" cy="2.4" r="35.31" fx="19.42" fy="2.4" gradientUnits="userSpaceOnUse"><stop offset="0" stop-color="#fddbdb"/><stop offset=".13" stop-color="#fbd3d7"/><stop offset=".34" stop-color="#f9bdcc"/><stop offset=".59" stop-color="#f49abc"/><stop offset=".6" stop-color="#f498bb"/><stop offset="1" stop-color="#fe8484"/></radialGradient><radialGradient id="ilYSGJU1tW0v8w65iR2DPd" cx="19.38" cy="3.45" r="35.25" fx="19.38" fy="3.45" gradientUnits="userSpaceOnUse"><stop offset="0" stop-color="#fdd6d6"/><stop offset=".12" stop-color="#fbced2"/><stop offset=".31" stop-color="#f8b8c7"/><stop offset=".53" stop-color="#f395b7"/><stop offset=".6" stop-color="#f289b1"/><stop offset="1" stop-color="#fd7171"/></radialGradient><radialGradient id="ilYSGJU1tW0v8w65iR2DPe" cx="19.35" cy="4.48" r="35.16" fx="19.35" fy="4.48" gradientUnits="userSpaceOnUse"><stop offset="0" stop-color="#fdd0d0"/><stop offset=".11" stop-color="#fbc8cc"/><stop offset=".28" stop-color="#f8b2c1"/><stop offset=".49" stop-color="#f38fb0"/><stop offset=".6" stop-color="#f079a6"/><stop offset="1" stop-color="#fd5e5e"/></radialGradient><radialGradient id="ilYSGJU1tW0v8w65iR2DPf" cx="19.32" cy="5.49" r="35.04" fx="19.32" fy="5.49" gradientUnits="userSpaceOnUse"><stop offset="0" stop-color="#fccbcb"/><stop offset=".1" stop-color="#fac3c7"/><stop offset=".26" stop-color="#f8adbc"/><stop offset=".45" stop-color="#f38aac"/><stop offset=".6" stop-color="#ef699c"/><stop offset="1" stop-color="#fd4c4c"/></radialGradient><radialGradient id="ilYSGJU1tW0v8w65iR2DPg" cx="19.29" cy="6.48" r="34.91" fx="19.29" fy="6.48" gradientUnits="userSpaceOnUse"><stop offset="0" stop-color="#fcc5c5"/><stop offset=".1" stop-color="#fabdc1"/><stop offset=".24" stop-color="#f7a7b6"/><stop offset=".42" stop-color="#f384a5"/><stop offset=".6" stop-color="#ed5991"/><stop offset="1" stop-color="#fd3939"/></radialGradient><radialGradient id="ilYSGJU1tW0v8w65iR2DPh" cx="19.26" cy="7.45" r="34.75" fx="19.26" fy="7.45" gradientUnits="userSpaceOnUse"><stop offset="0" stop-color="#fcc0c0"/><stop offset=".09" stop-color="#fab8bc"/><stop offset=".23" stop-color="#f7a2b1"/><stop offset=".4" stop-color="#f27fa0"/><stop offset=".59" stop-color="#eb4e89"/><stop offset=".6" stop-color="#eb4a87"/><stop offset="1" stop-color="#fc2626"/></radialGradient><radialGradient id="ilYSGJU1tW0v8w65iR2DPi" cx="19.23" cy="8.4" r="34.56" fx="19.23" fy="8.4" gradientUnits="userSpaceOnUse"><stop offset="0" stop-color="#fbbaba"/><stop offset=".08" stop-color="#f9b2b6"/><stop offset=".21" stop-color="#f79cab"/><stop offset=".37" stop-color="#f2799a"/><stop offset=".55" stop-color="#eb4883"/><stop offset=".6" stop-color="#ea3a7c"/><stop offset="1" stop-color="#fc1313"/></radialGradient><radialGradient id="ilYSGJU1tW0v8w65iR2DPj" cx="19.21" cy="9.33" r="34.36" fx="19.21" fy="9.33" gradientUnits="userSpaceOnUse"><stop offset="0" stop-color="#fbb5b5"/><stop offset=".08" stop-color="#f9adb1"/><stop offset=".2" stop-color="#f697a6"/><stop offset=".35" stop-color="#f27495"/><stop offset=".52" stop-color="#eb437e"/><stop offset=".6" stop-color="#e82a72"/><stop offset="1" stop-color="#fc0000"/></radialGradient></defs><path fill="url(#ilYSGJU1tW0v8w65iR2DPa)" d="m33.09,7.04c-1.16,0-2.27.18-3.32.51-1.18.37-2.06,1.37-2.33,2.58h0c-.18.8-.08,1.64.29,2.37l1.69,3.35s.01.07-.01.1l-4.76,5.97-.82,7.78c0,.06-.08.07-.11.02l-4.24-7.73s-.02-.07,0-.11l2.75-4.23c.76-1.16.76-2.66,0-3.83l-1.7-2.61s-.03-.06-.02-.1l.3-1.39c.11-.53-.14-1.06-.62-1.32-1.57-.86-3.37-1.36-5.29-1.36-6.02,0-10.91,4.8-10.91,10.71,0,12.5,16.47,23.21,20,23.21s20-10.71,20-23.21c0-5.92-4.88-10.71-10.91-10.71Z"/><path fill="url(#ilYSGJU1tW0v8w65iR2DPb)" d="m24,40.74c-3.44-.01-19.78-10.63-19.78-22.99,0-5.79,4.79-10.49,10.69-10.49,1.85,0,3.6.47,5.12,1.3.43.23.66.72.56,1.19l-.29,1.33c-.02.08,0,.16.04.23l1.69,2.58c.73,1.11.73,2.55,0,3.66l-2.72,4.19c-.07.1-.07.23-.01.34l4.25,7.76c.13.23.48.16.51-.1l.81-7.74,4.67-5.85c.11-.14.13-.33.05-.49l-1.65-3.27c-.35-.69-.44-1.47-.27-2.22h0c.26-1.13,1.08-2.07,2.19-2.42,1.02-.32,2.11-.49,3.24-.49,5.9,0,10.69,4.7,10.69,10.49,0,12.36-16.35,22.98-19.78,22.99Z"/><path fill="url(#ilYSGJU1tW0v8w65iR2DPc)" d="m24,40.52c-3.35-.02-19.56-10.54-19.56-22.77,0-5.67,4.69-10.27,10.46-10.27,1.78,0,3.47.44,4.94,1.24.38.21.59.64.5,1.07l-.28,1.27c-.03.13,0,.26.07.37l1.67,2.56c.69,1.06.7,2.44,0,3.5l-2.7,4.15c-.11.17-.12.39-.02.57l4.26,7.78c.23.42.86.29.91-.18l.81-7.71,4.58-5.73c.2-.25.23-.59.09-.87l-1.61-3.19c-.32-.64-.41-1.37-.26-2.07h0c.24-1.06,1.01-1.94,2.05-2.26,1-.31,2.07-.48,3.16-.48,5.78,0,10.46,4.6,10.46,10.27,0,12.22-16.22,22.74-19.56,22.77Z"/><path fill="url(#ilYSGJU1tW0v8w65iR2DPd)" d="m24,40.3c-3.26-.04-19.33-10.46-19.33-22.54,0-5.55,4.59-10.05,10.24-10.05,1.71,0,3.34.41,4.77,1.18.34.18.52.56.44.94l-.26,1.2c-.04.17,0,.35.09.5l1.66,2.53c.66,1.01.66,2.32,0,3.34l-2.67,4.1c-.16.24-.17.55-.03.81l4.28,7.8c.33.6,1.23.42,1.31-.26l.81-7.67,4.48-5.61c.29-.36.34-.85.13-1.26l-1.57-3.12c-.3-.59-.38-1.27-.24-1.92h0c.22-.99.94-1.8,1.91-2.1.98-.3,2.02-.47,3.09-.47,5.65,0,10.24,4.5,10.24,10.05,0,12.08-16.08,22.51-19.33,22.54Z"/><path fill="url(#ilYSGJU1tW0v8w65iR2DPe)" d="m24,40.07c-3.17-.05-19.11-10.37-19.11-22.32,0-5.42,4.49-9.82,10.02-9.82,1.64,0,3.21.39,4.59,1.11.29.16.45.49.38.81l-.25,1.14c-.05.22,0,.45.12.64l1.64,2.51c.63.96.63,2.21,0,3.17l-2.64,4.06c-.2.31-.22.71-.04,1.04l4.29,7.83c.43.78,1.61.55,1.7-.34l.8-7.64,4.39-5.5c.37-.47.44-1.11.17-1.64l-1.54-3.04c-.28-.55-.35-1.17-.22-1.77h0c.21-.91.88-1.66,1.77-1.94.96-.3,1.97-.45,3.01-.45,5.53,0,10.02,4.4,10.02,9.82,0,11.94-15.95,22.27-19.11,22.32Z"/><path fill="url(#ilYSGJU1tW0v8w65iR2DPf)" d="m24,39.85c-3.08-.06-18.89-10.29-18.89-22.1,0-5.3,4.39-9.6,9.8-9.6,1.57,0,3.08.36,4.42,1.05.25.13.38.41.32.68l-.23,1.08c-.06.27,0,.54.14.77l1.62,2.49c.6.91.6,2.1,0,3.01l-2.61,4.02c-.25.38-.27.87-.05,1.28l4.3,7.85c.53.97,1.99.67,2.1-.42l.8-7.6,4.29-5.38c.46-.58.54-1.37.21-2.02l-1.5-2.96c-.25-.5-.32-1.08-.2-1.62h0c.19-.84.81-1.53,1.63-1.78.94-.29,1.92-.44,2.93-.44,5.41,0,9.8,4.3,9.8,9.6,0,11.8-15.82,22.04-18.89,22.1Z"/><path fill="url(#ilYSGJU1tW0v8w65iR2DPg)" d="m24,39.63c-2.99-.07-18.67-10.21-18.67-21.88,0-5.18,4.29-9.38,9.58-9.38,1.5,0,2.95.33,4.24.99.2.1.31.33.26.56l-.22,1.02c-.07.31,0,.64.17.91l1.61,2.46c.56.86.57,1.98,0,2.85l-2.59,3.97c-.3.45-.32,1.04-.06,1.51l4.31,7.87c.63,1.15,2.36.8,2.5-.5l.8-7.57,4.2-5.26c.55-.68.64-1.63.25-2.41l-1.46-2.88c-.23-.46-.29-.98-.18-1.47h0c.17-.77.74-1.39,1.49-1.62.91-.28,1.87-.43,2.86-.43,5.28,0,9.58,4.21,9.58,9.38,0,11.66-15.68,21.8-18.67,21.88Z"/><path fill="url(#ilYSGJU1tW0v8w65iR2DPh)" d="m24,39.41c-2.9-.08-18.44-10.12-18.44-21.66,0-5.05,4.19-9.16,9.35-9.16,1.43,0,2.82.31,4.06.93.16.08.24.26.2.43l-.21.96c-.08.36,0,.74.19,1.04l1.59,2.44c.53.82.53,1.87,0,2.68l-2.56,3.93c-.34.53-.37,1.2-.07,1.75l4.33,7.9c.73,1.33,2.74.93,2.9-.58l.79-7.53,4.1-5.14c.63-.79.75-1.88.29-2.79l-1.42-2.81c-.21-.41-.26-.88-.16-1.32h0c.16-.69.67-1.25,1.35-1.46.89-.27,1.83-.41,2.78-.41,5.16,0,9.35,4.11,9.35,9.16,0,11.52-15.55,21.57-18.44,21.66Z"/><path fill="url(#ilYSGJU1tW0v8w65iR2DPi)" d="m24,39.18c-2.81-.1-18.22-10.04-18.22-21.43,0-4.93,4.1-8.94,9.13-8.94,1.36,0,2.69.29,3.89.87.11.05.17.18.15.3l-.19.9c-.09.41,0,.83.22,1.18l1.58,2.41c.5.77.5,1.75,0,2.52l-2.53,3.89c-.39.6-.42,1.36-.07,1.98l4.34,7.92c.83,1.51,3.12,1.06,3.3-.66l.79-7.5,4.01-5.02c.72-.9.85-2.14.33-3.18l-1.38-2.73c-.18-.36-.23-.78-.15-1.18h0c.14-.62.6-1.12,1.21-1.3.87-.26,1.78-.4,2.7-.4,5.04,0,9.13,4.01,9.13,8.94,0,11.39-15.41,21.33-18.22,21.43Z"/><path fill="url(#ilYSGJU1tW0v8w65iR2DPj)" d="m24,38.96c-2.72-.11-18-9.95-18-21.21,0-4.8,4-8.71,8.91-8.71,1.29,0,2.55.28,3.71.8.07.03.1.1.09.17l-.18.83c-.1.45-.01.93.24,1.31l1.56,2.39c.47.72.47,1.64,0,2.36l-2.5,3.85c-.43.67-.47,1.52-.08,2.21l4.35,7.94c.93,1.7,3.49,1.18,3.7-.74l.79-7.46,3.91-4.9c.81-1.01.95-2.4.37-3.56l-1.34-2.65c-.16-.32-.21-.68-.13-1.03h0c.12-.55.54-.98,1.07-1.14.85-.25,1.73-.39,2.62-.39,4.91,0,8.91,3.91,8.91,8.71,0,11.25-15.28,21.1-18,21.21Z"/></svg>