<svg xmlns="http://www.w3.org/2000/svg"  viewBox="0 0 48 48" width="48px" height="48px"><path d="M 12.5 4 C 9.4802259 4 7 6.4802259 7 9.5 L 7 12.5 L 7 20.5 L 7 35.5 C 7 38.519774 9.4802259 41 12.5 41 L 36.5 41 C 38.009887 41 39.368117 40.243925 40.083984 39.150391 C 40.799852 38.056856 41 36.78354 41 35.5 L 41 20.5 L 41 12.5 L 41 9.5 C 41 6.4802259 38.519774 4 35.5 4 C 32.480226 4 30 6.4802259 30 9.5 L 30 10.5 C 30 10.795045 29.795045 11 29.5 11 L 18.5 11 C 18.204955 11 18 10.795045 18 10.5 L 18 9.5 C 18 6.4802259 15.519774 4 12.5 4 z M 12.5 7 C 13.898226 7 15 8.1017741 15 9.5 L 15 10.5 C 15 12.414955 16.585045 14 18.5 14 L 29.5 14 C 31.414955 14 33 12.414955 33 10.5 L 33 9.5 C 33 8.1017741 34.101774 7 35.5 7 C 36.898226 7 38 8.1017741 38 9.5 L 38 12.5 L 38 20.5 L 38 35.5 C 38 36.42546 37.806101 37.151644 37.574219 37.505859 C 37.342336 37.860075 37.199113 38 36.5 38 L 12.5 38 C 11.101774 38 10 36.898226 10 35.5 L 10 20.5 L 10 12.5 L 10 9.5 C 10 8.1017741 11.101774 7 12.5 7 z M 24 16 C 17.544758 16 12 20.304178 12 26 C 12 31.695822 17.544758 36 24 36 C 30.455242 36 36 31.695822 36 26 C 36 20.304178 30.455242 16 24 16 z M 24 19 C 29.142746 19 33 22.306982 33 26 C 33 29.693018 29.142746 33 24 33 C 18.857254 33 15 29.693018 15 26 C 15 22.306982 18.857254 19 24 19 z M 19 22 A 2 2 0 0 0 19 26 A 2 2 0 0 0 19 22 z M 29 22 A 2 2 0 0 0 29 26 A 2 2 0 0 0 29 22 z M 26.474609 26.980469 A 1.50015 1.50015 0 0 0 25.251953 27.667969 C 25.193293 27.755989 24.659817 28.070313 24 28.070312 C 23.340183 28.070312 22.806703 27.755984 22.748047 27.667969 A 1.50015 1.50015 0 0 0 21.484375 26.982422 A 1.50015 1.50015 0 0 0 20.251953 29.332031 C 21.144297 30.671016 22.635317 31.070312 24 31.070312 C 25.364683 31.070312 26.855703 30.671016 27.748047 29.332031 A 1.50015 1.50015 0 0 0 26.474609 26.980469 z"/></svg>