<svg xmlns="http://www.w3.org/2000/svg"  viewBox="0 0 32 32" width="50px" height="50px" baseProfile="basic"><linearGradient id="jcwIcrWkVXhVaMDwYu0U4a" x1="16" x2="16" y1="3.896" y2="28.011" gradientUnits="userSpaceOnUse"><stop offset="0" stop-color="#ebbd7a"/><stop offset=".998" stop-color="#e8ae5a"/></linearGradient><path fill="url(#jcwIcrWkVXhVaMDwYu0U4a)" d="M25,28H7c-0.552,0-1-0.448-1-1V5c0-0.552,0.448-1,1-1h18c0.552,0,1,0.448,1,1v22	C26,27.552,25.552,28,25,28z"/><linearGradient id="jcwIcrWkVXhVaMDwYu0U4b" x1="16" x2="16" y1="4" y2="28" gradientUnits="userSpaceOnUse"><stop offset="0" stop-opacity=".02"/><stop offset="1" stop-opacity=".15"/></linearGradient><path fill="url(#jcwIcrWkVXhVaMDwYu0U4b)" d="M25,4.25c0.414,0,0.75,0.336,0.75,0.75v22	c0,0.414-0.336,0.75-0.75,0.75H7c-0.414,0-0.75-0.336-0.75-0.75V5c0-0.414,0.336-0.75,0.75-0.75H25 M25,4H7C6.448,4,6,4.448,6,5v22	c0,0.552,0.448,1,1,1h18c0.552,0,1-0.448,1-1V5C26,4.448,25.552,4,25,4L25,4z"/><linearGradient id="jcwIcrWkVXhVaMDwYu0U4c" x1="16.32" x2="16.32" y1="4.75" y2="26.25" gradientUnits="userSpaceOnUse"><stop offset="0" stop-opacity=".02"/><stop offset="1" stop-opacity=".1"/></linearGradient><path fill="url(#jcwIcrWkVXhVaMDwYu0U4c)" d="M24.25,4.75H24H8H7.75V5v21v0.25H8h4 c7.577,0,12.891-0.427,12.891-0.427S24.25,20.938,24.25,17V5V4.75L24.25,4.75z"/><linearGradient id="jcwIcrWkVXhVaMDwYu0U4d" x1="16.25" x2="16.25" y1="4.909" y2="26.009" gradientUnits="userSpaceOnUse"><stop offset="0" stop-color="#e6e6e6"/><stop offset="1" stop-color="#f0f0f0"/></linearGradient><path fill="url(#jcwIcrWkVXhVaMDwYu0U4d)" d="M24.5,25c0,0-6.5,1-12.5,1	c-1.875,0-4,0-4,0V5h16c0,0,0,10,0,12C24,21,24.5,25,24.5,25z"/><linearGradient id="jcwIcrWkVXhVaMDwYu0U4e" x1="16" x2="16" y1="2.978" y2="8.002" gradientUnits="userSpaceOnUse"><stop offset="0" stop-color="#888991"/><stop offset="1" stop-color="#4a4b4f"/></linearGradient><path fill="url(#jcwIcrWkVXhVaMDwYu0U4e)" d="M17.723,4C17.376,3.405,16.738,3,16,3	s-1.376,0.405-1.723,1H11v3c0,0.552,0.448,1,1,1h8c0.552,0,1-0.448,1-1V4H17.723z M16,5.5c-0.276,0-0.5-0.224-0.5-0.5	c0-0.276,0.224-0.5,0.5-0.5s0.5,0.224,0.5,0.5C16.5,5.276,16.276,5.5,16,5.5z"/><linearGradient id="jcwIcrWkVXhVaMDwYu0U4f" x1="16" x2="16" y1="3" y2="8" gradientUnits="userSpaceOnUse"><stop offset="0" stop-opacity=".02"/><stop offset="1" stop-opacity=".15"/></linearGradient><path fill="url(#jcwIcrWkVXhVaMDwYu0U4f)" d="M16,3.25c0.624,0,1.187,0.327,1.507,0.876	l0.072,0.124h0.144h3.027V7c0,0.414-0.336,0.75-0.75,0.75h-8c-0.414,0-0.75-0.336-0.75-0.75V4.25h3.027h0.144l0.072-0.124	C14.813,3.577,15.376,3.25,16,3.25 M16,5.75c0.414,0,0.75-0.336,0.75-0.75S16.414,4.25,16,4.25S15.25,4.586,15.25,5	S15.586,5.75,16,5.75 M16,3c-0.738,0-1.376,0.405-1.723,1H11v3c0,0.552,0.448,1,1,1h8c0.552,0,1-0.448,1-1V4h-3.277	C17.376,3.405,16.738,3,16,3L16,3z M16,5.5c-0.276,0-0.5-0.224-0.5-0.5c0-0.276,0.224-0.5,0.5-0.5s0.5,0.224,0.5,0.5	C16.5,5.276,16.276,5.5,16,5.5L16,5.5z"/><path fill="#c9c9c9" d="M21.5,15h-3c-0.276,0-0.5,0.224-0.5,0.5c0,0.276,0.224,0.5,0.5,0.5h3c0.276,0,0.5-0.224,0.5-0.5	C22,15.224,21.776,15,21.5,15z"/><path fill="#c9c9c9" d="M21.5,12h-3c-0.276,0-0.5,0.224-0.5,0.5c0,0.276,0.224,0.5,0.5,0.5h3c0.276,0,0.5-0.224,0.5-0.5	C22,12.224,21.776,12,21.5,12z"/><path fill="#c9c9c9" d="M21.5,18h-5c-0.276,0-0.5,0.224-0.5,0.5c0,0.276,0.224,0.5,0.5,0.5h5c0.276,0,0.5-0.224,0.5-0.5	C22,18.224,21.776,18,21.5,18z"/><path fill="#c9c9c9" d="M21.5,21h-11c-0.276,0-0.5,0.224-0.5,0.5c0,0.276,0.224,0.5,0.5,0.5h11c0.276,0,0.5-0.224,0.5-0.5	C22,21.224,21.776,21,21.5,21z"/><linearGradient id="jcwIcrWkVXhVaMDwYu0U4g" x1="13" x2="13" y1="11.941" y2="18.157" gradientUnits="userSpaceOnUse"><stop offset="0" stop-color="#ff624a"/><stop offset=".247" stop-color="#ff5940"/><stop offset=".672" stop-color="#fd4224"/><stop offset="1" stop-color="#fc2c0a"/></linearGradient><path fill="url(#jcwIcrWkVXhVaMDwYu0U4g)" d="M15.5,14H14v-1.5	c0-0.276-0.224-0.5-0.5-0.5h-1c-0.276,0-0.5,0.224-0.5,0.5V14h-1.5c-0.276,0-0.5,0.224-0.5,0.5v1c0,0.276,0.224,0.5,0.5,0.5H12v1.5	c0,0.276,0.224,0.5,0.5,0.5h1c0.276,0,0.5-0.224,0.5-0.5V16h1.5c0.276,0,0.5-0.224,0.5-0.5v-1C16,14.224,15.776,14,15.5,14z"/></svg>