<svg xmlns="http://www.w3.org/2000/svg"  viewBox="0 0 64 64" width="64px" height="64px"><linearGradient id="e52KAevw7rFTdpvPdcF1va" x1="-46.785" x2="-7.737" y1="36.65" y2="75.698" gradientTransform="rotate(45.001 31.814 115.502)" gradientUnits="userSpaceOnUse" spreadMethod="reflect"><stop offset="0" stop-color="#6dc7ff"/><stop offset="1" stop-color="#e6abff"/></linearGradient><path fill="url(#e52KAevw7rFTdpvPdcF1va)" d="M41.185,12.8c-5.069-5.069-13.316-5.069-18.385,0s-5.069,13.316,0,18.385 s13.316,5.069,18.385,0S46.253,17.868,41.185,12.8z M24.214,29.77c-4.289-4.289-4.289-11.267,0-15.556s11.267-4.289,15.556,0 s4.289,11.267,0,15.556S28.503,34.059,24.214,29.77z"/><linearGradient id="e52KAevw7rFTdpvPdcF1vb" x1="32" x2="32" y1="5" y2="60" gradientUnits="userSpaceOnUse" spreadMethod="reflect"><stop offset="0" stop-color="#1a6dff"/><stop offset="1" stop-color="#c822ff"/></linearGradient><path fill="url(#e52KAevw7rFTdpvPdcF1vb)" d="M49,22c0-9.389-7.611-17-17-17s-17,7.611-17,17c0,9.051,7.079,16.429,16,16.95V49h-9v2h9v9h2 v-9h9v-2h-9V38.95C41.921,38.429,49,31.051,49,22z M17,22c0-8.284,6.716-15,15-15s15,6.716,15,15c0,8.284-6.716,15-15,15 S17,30.284,17,22z"/></svg>