<?xml version="1.0"?><svg xmlns="http://www.w3.org/2000/svg"  viewBox="0 0 30 30" width="30px" height="30px">    <path d="M24,4H6C4.895,4,4,4.895,4,6v18c0,1.105,0.895,2,2,2h18c1.105,0,2-0.895,2-2V6C26,4.895,25.105,4,24,4z M20.707,19.293 c0.391,0.391,0.391,1.023,0,1.414C20.512,20.902,20.256,21,20,21s-0.512-0.098-0.707-0.293L15,16.414l-4.293,4.293 C10.512,20.902,10.256,21,10,21s-0.512-0.098-0.707-0.293c-0.391-0.391-0.391-1.023,0-1.414L13.586,15l-4.293-4.293 c-0.391-0.391-0.391-1.023,0-1.414s1.023-0.391,1.414,0L15,13.586l4.293-4.293c0.391-0.391,1.023-0.391,1.414,0s0.391,1.023,0,1.414 L16.414,15L20.707,19.293z"/></svg>