<?xml version="1.0"?><svg xmlns="http://www.w3.org/2000/svg"  viewBox="0 0 30 30" width="30px" height="30px">    <path d="M25.983,13.342C25.988,13.228,26,13.116,26,13c0-4.418-3.582-8-8-8c-3.11,0-5.8,1.779-7.123,4.371C10.296,9.136,9.665,9,9,9 c-2.53,0-4.599,1.885-4.932,4.324C1.703,14.129,0,16.363,0,19c0,3.314,2.686,6,6,6h18c3.314,0,6-2.686,6-6 C30,16.382,28.321,14.162,25.983,13.342z M19.5,13c0.828,0,1.5,0.672,1.5,1.5S20.328,16,19.5,16S18,15.328,18,14.5 S18.672,13,19.5,13z M11.5,13c0.828,0,1.5,0.672,1.5,1.5S12.328,16,11.5,16S10,15.328,10,14.5S10.672,13,11.5,13z M21.625,22.281 C21.44,22.429,21.22,22.5,21.001,22.5c-0.294,0-0.584-0.128-0.782-0.375C20.151,22.042,18.45,20,15.5,20 c-2.984,0-4.702,2.104-4.719,2.125c-0.346,0.43-0.974,0.503-1.406,0.156c-0.431-0.346-0.501-0.975-0.156-1.406 C9.313,20.758,11.564,18,15.5,18s6.187,2.758,6.281,2.875C22.126,21.307,22.056,21.936,21.625,22.281z"/></svg>